<svg width="522" height="293" viewBox="0 0 522 293" fill="none" xmlns="http://www.w3.org/2000/svg">
<g clip-path="url(#clip0_193_127)">
<path d="M392.23 214.59C388.65 195.12 373.31 179.89 360.49 165.95C355.33 160.92 350.32 155.77 345.56 150.36C336.91 141.72 328.01 133.01 321.55 122.53C295.15 86.3199 324.19 72.3799 314 44.4899C299.01 21.1599 265.87 20.6799 241.76 26.8199C238.91 27.8099 236.12 29.0099 233.17 29.6699C226.55 33.9799 218.05 37.6999 215.58 46.3599C214.53 49.4599 213.91 53.1699 213.58 56.0899C213.63 59.0899 213.69 62.0799 213.74 65.0799C217.91 89.2799 227.05 116.33 216.39 140.35C215.56 142.68 214.35 144.81 213.1 146.93L213.27 147.17C212.58 148.73 211.38 149.85 210.45 151.24C202.99 161.43 192.84 169.44 181.52 174.95C180.23 175.64 178.94 176.33 177.65 177.02C173.84 178.38 170.4 180.62 166.49 181.63C154.25 186.79 137.34 188.67 130.92 201.72C128.04 209.98 130.13 219.35 132.78 227.46C133.13 228.43 133.49 229.39 133.84 230.36C140.33 247.09 153.46 261.44 168.35 271.18C168.76 271.45 169.21 271.66 169.64 271.91C183.43 278.95 197.18 281.44 210.49 273.45C230.31 256.15 229.34 225.61 247.02 206.56C247.71 205.92 248.41 205.29 249.1 204.65C259.96 195.28 274.69 194.82 289.67 197.99C294.32 198.97 306.07 213.72 302.96 218.27L303.26 218.47C305.4 231.1 299.42 245.91 307.64 257.14C308.33 258.04 309.03 258.92 309.9 259.66C310.44 260.18 311.08 260.61 311.65 261.09C312.01 261.37 312.38 261.66 312.74 261.94C336.83 272.84 364.33 257.77 382.99 242.1C383.47 241.58 383.93 241.04 384.4 240.52C390.77 233.49 393.5 223.92 392.23 214.57V214.59ZM284.93 145.05C279.6 164.95 261.34 155.49 254.24 142.14C254.01 141.77 253.44 141.55 253.86 141.09C250.96 132.6 247.59 122.52 251.59 113.93C266.62 86.9899 290.98 127.34 284.93 145.04V145.05Z" fill="#FFFFFF"/>
<path d="M520.52 17.38C518.27 10.86 513.55 5.77003 507.27 2.94003C479.76 -4.83997 443.87 4.59003 416.11 10.68C407.01 13.23 397.83 15.61 389.09 19.36C380.72 22.34 372.81 26.5 365.15 30.98C360.82 33.92 356.43 36.81 352.58 40.37L352.51 40.44C338.83 52.65 331.89 70.69 335.8 88.83C336.04 89.09 336.44 89.26 336.13 89.63C338.12 100.19 343.61 109.62 349.42 118.5L349.62 118.43C353.95 124.76 359.27 130.4 364.21 136.11C364.72 136.28 365.01 136.83 365.41 137.18C379.88 151.99 395.78 165.91 407.8 182.98C411.06 187.56 413.12 193.04 416 197.7C417.23 200.78 418.47 203.85 419.7 206.93C419.23 213.11 421.59 219.33 421.86 225.58C422.13 225.77 422.15 225.98 421.94 226.23C422.43 228.21 422.95 230.16 422.92 232.22C428.85 258.35 444.75 255.31 466.69 254.89C486.19 252.17 507.93 245.21 516.23 225.38C516.55 224.38 516.88 223.37 517.2 222.37C514.68 214.31 515.16 204.71 510.39 197.7V197.69C509.63 196.51 508.6 195.57 507.64 194.56C507.36 194.22 507.05 193.89 506.76 193.55C505.23 191.78 503.44 190.24 501.76 188.6C499.63 186.76 497.48 184.94 495.26 183.21C494.19 182.33 493.05 181.54 492 180.63C484.72 175.27 477.28 170.12 469.94 164.83C465.21 160.99 460.43 157.15 456.04 152.93C456.6 149.02 457.17 145.11 457.73 141.2C474.18 138.53 492.75 152.08 508.21 143.91C521.99 135.2 524.66 99.8 513.53 88.85C513.13 88.6 512.7 88.34 512.29 88.1L512.07 87.95L511.75 88.04C488.17 78.33 444.27 116.23 421.94 101.7C419.63 99.94 418.24 97.3 417.08 94.69L417.06 94.64C418.05 87.76 419.05 80.88 420.04 74C422.57 72.33 424.82 69.86 428.08 69.92L428.38 69.63L428.76 69.8C436.67 68.45 444.92 69.64 452.75 70.97L452.87 71.12C478.5 75.73 503.45 82.8 517.09 54.02L517.15 53.86C517 53.52 517.09 53.27 517.43 53.11C522.03 42.15 522 29.08 520.53 17.38H520.52Z" fill="#FFFFFF"/>
<path d="M197.81 97.5298C196.15 89.8198 194.64 81.9398 190.31 75.0898C186.2 68.7298 180.91 63.2598 174.62 59.0298C174.25 58.7498 173.87 58.4698 173.5 58.1998C168.43 55.1598 163.27 52.3398 157.7 50.1998C153.79 48.8498 149.69 47.8998 145.87 46.3498C118.87 40.2998 90.7202 40.2898 63.2002 42.6298L63.2602 42.4598C59.5102 42.9998 56.0802 44.5498 52.2802 44.1898L52.3602 44.3898C34.4302 46.8398 9.7702 49.0098 1.71019 68.0198C-7.24981 96.8398 21.1502 113.53 35.4602 134.32C35.6902 134.7 35.9002 135.09 36.1302 135.47C37.0202 136.45 37.5402 138.07 38.6602 138.71C43.9302 148.35 47.1602 159.15 46.4502 170.21L46.6202 170.51C46.6202 170.51 46.4102 170.79 46.4102 170.78C45.8802 173.63 46.9902 178.22 45.0702 180.2C44.5702 181.8 44.0802 183.4 43.5802 185.01L43.7302 185.36C42.4902 189.82 40.4902 194.38 38.5002 198.74C36.0702 203.46 33.2602 207.94 30.3002 212.33L30.2502 212.4C28.7402 214.8 27.2002 217.19 25.5102 219.47C23.8802 222.42 21.8602 225.15 20.4202 228.22C20.1802 228.64 19.9202 229.05 19.6802 229.46L19.5202 229.56C-4.48981 279.08 51.1702 300.1 91.4302 289.81L91.8602 289.73C94.2902 288.84 96.8402 288.22 99.1802 287.09C100.87 286.15 102.56 285.19 104.18 284.13C107.54 282.07 110.19 278.94 112.42 275.73C113.05 274.54 113.53 273.27 114.09 272.05C113.57 259.77 115.95 247.2 110.74 235.57C107.92 227.47 105.3 219.28 103.34 210.91C101.9 210.21 101.93 206.91 102.39 205.44C101.49 196.21 103.8 187.23 110.66 180.67C110.96 180.34 111.27 180.02 111.57 179.69C111.95 179.38 112.31 179.05 112.67 178.73L112.78 178.6C113.07 178.32 113.37 178.03 113.66 177.75C115.67 176.05 117.82 174.54 120.04 173.12L120.06 173.1C136.34 163.39 154.97 158.68 171.2 148.93C175.02 146.98 178.27 144.1 181.61 141.42C194.44 130.79 199.06 113.67 197.79 97.5298H197.81ZM133.68 107.49C129.51 127.04 105.03 139.73 94.3802 118.15C95.2202 113.29 94.1702 108.28 95.8302 103.52C98.9302 94.6298 105.01 88.6498 114.7 86.2198C118.02 85.3898 121.55 86.3398 124.98 86.3998C133.71 90.1098 134.81 99.0998 133.68 107.5V107.49Z" fill="#FFFFFF"/>
</g>
<defs>
<clipPath id="clip0_193_127">
<rect width="521.4" height="292.37" fill="white"/>
</clipPath>
</defs>
</svg>
